<svg xmlns="http://www.w3.org/2000/svg" viewBox="0 0 54.422 49.225">
  <path stroke="#0015ba" fill="#ECE9E6" d="M50.757 12.07L47.85 1.226 7.372 12.07"/>
  <path fill="#43525b" d="M7.63 13.037l-.517-1.932L48.558 0l3.165 11.812-1.932.518-2.647-9.88L7.63 13.036z"/>
  <path fill="#fff" d="M1 12.071h52.422v36.154H1z"/>
  <path fill="#43525B" d="M54.422 49.225H0V11.07h54.422v38.154zM2 47.225h50.422V13.07H2v34.154z"/>
  <path fill="#0051BA" d="M48.903 39.283H36.25v-2h12.654v2z"/>
  <path fill="#43525B" d="M3.71 44.705H1a1 1 0 110-2h2.71a1 1 0 110 2zM3.71 40.187H1a1 1 0 110-2h2.71a1 1 0 110 2zM3.71 35.666H1a1 1 0 110-2h2.71a1 1 0 110 2zM3.71 31.148H1a1 1 0 110-2h2.71a1 1 0 110 2zM3.71 26.628H1a1 1 0 110-2h2.71a1 1 0 110 2zM3.71 22.11H1a1 1 0 110-2h2.71a1 1 0 110 2zM3.71 17.59H1a1 1 0 110-2h2.71a1 1 0 110 2zM28.21 42.802h-2V17.494h2v25.308z"/>
  <path fill="#0051BA" d="M48.903 35.666H38.057v-2h10.846v2z"/>
  <path fill="#ffc82d" d="M41.673 18.398h7.231v7.231h-7.231z"/>
  <path fill="#43525B" d="M49.903 26.628h-9.23v-9.23h9.23v9.23zm-7.23-2h5.23v-5.23h-5.23v5.23z"/>
  <path fill="#e8000d" d="M16.004 23.4a2.843 2.843 0 00-2.603-1.703c-1.563 0-2.692 1.298-2.837 2.838 0 0-.074.383.093 1.073.232.939.772 1.77 1.495 2.41l3.852 3.318 3.786-3.318c.727-.64 1.265-1.471 1.494-2.41.17-.69.095-1.073.095-1.073-.145-1.54-1.272-2.838-2.839-2.838-1.164 0-2.098.702-2.536 1.703z"/>
  <path fill="#43525B" d="M16.004 32.336a.996.996 0 01-.652-.242L11.5 28.775c-.916-.808-1.54-1.818-1.813-2.928-.205-.841-.131-1.363-.104-1.503.187-2.037 1.834-3.647 3.818-3.647.978 0 1.896.372 2.591 1.009a3.688 3.688 0 012.548-1.009c1.985 0 3.634 1.61 3.835 3.744.013.043.086.566-.12 1.405-.272 1.113-.896 2.124-1.805 2.923l-3.787 3.319a.996.996 0 01-.66.248zM13.4 22.697c-1.09 0-1.75.971-1.84 1.93-.01.068-.038.309.068.746.175.709.585 1.365 1.185 1.895l3.184 2.743 3.133-2.745c.599-.527 1.008-1.182 1.182-1.895.106-.436.079-.677.079-.68-.1-1.023-.761-1.994-1.852-1.994-.712 0-1.317.413-1.62 1.105a1 1 0 01-.915.598h-.001a1 1 0 01-.915-.597 1.847 1.847 0 00-1.688-1.106zM10.256 41.24a1 1 0 01-.707-1.707l4.208-4.207a1 1 0 111.414 1.414l-4.208 4.207a.997.997 0 01-.707.293z"/>
  <path fill="#43525B" d="M14.464 41.24a.997.997 0 01-.707-.293L9.549 36.74a1 1 0 111.414-1.414l4.208 4.207a1 1 0 01-.707 1.707zM17.268 41.24a1 1 0 01-.707-1.707l4.208-4.207a1 1 0 111.415 1.414l-4.208 4.207a.997.997 0 01-.707.293z"/>
  <path fill="#43525B" d="M21.477 41.24a.997.997 0 01-.707-.293l-4.208-4.207a1 1 0 111.414-1.414l4.208 4.207a1 1 0 01-.707 1.707z"/>
</svg>
