<svg width="64" height="64" xmlns="http://www.w3.org/2000/svg">
 <g>
  <title>background</title>
  <rect x="-1" y="-1" width="66" height="66" id="canvas_background" fill="none"/>
 </g>

 <g>
  <title>Layer 1</title>
  <g transform="rotate(-14.741331100463867 30.25033950805665,30.987039566040046) " id="svg_1">
   <polyline fill="#ECE9E6" points="53.79624557495117,18.445539474487305 50.88994216918945,7.599340438842773 10.411441802978516,18.445539474487305 " id="svg_3" stroke="#0015ba"/>
   <polygon fill="#43525b" points="10.670242309570312,19.411340713500977 10.152641296386719,17.479740142822266 51.5970458984375,6.3747406005859375 54.76204299926758,18.186738967895508 52.8304443359375,18.7043399810791 50.182945251464844,8.823939323425293 10.670242309570312,19.411340713500977 " id="svg_4"/>
   <rect fill="#ffffff" height="36.1538" width="52.4218" x="4.039442" y="18.445541" id="svg_6"/>
   <path d="m57.461242,55.599341l-54.4218,0l0,-38.1538l54.4218,0l0,38.1538l0,0zm-52.4218,-2l50.4218,0l0,-34.1538l-50.4218,0l0,34.1538l0,0z" fill="#43525B" id="svg_7"/>
   <polygon fill="#0051BA" points="51.942745208740234,45.65793800354004 39.28844451904297,45.65793800354004 39.28844451904297,43.65793800354004 51.942745208740234,43.65793800354004 51.942745208740234,45.65793800354004 " id="svg_9"/>
   <path d="m6.750342,51.079841l-2.7109,0c-0.5528,0 -1,-0.4478 -1,-1c0,-0.5523 0.4472,-1 1,-1l2.7109,0c0.5527,0 1,0.4477 1,1c0,0.5522 -0.4473,1 -1,1l0,0z" fill="#43525B" id="svg_12"/>
   <path d="m6.750342,46.561241l-2.7109,0c-0.5528,0 -1,-0.4477 -1,-1c0,-0.5522 0.4472,-1 1,-1l2.7109,0c0.5527,0 1,0.4478 1,1c0,0.5523 -0.4473,1 -1,1l0,0z" fill="#43525B" id="svg_14"/>
   <path d="m6.750342,42.040741l-2.7109,0c-0.5528,0 -1,-0.4477 -1,-1c0,-0.5522 0.4472,-1 1,-1l2.7109,0c0.5527,0 1,0.4478 1,1c0,0.5523 -0.4473,1 -1,1l0,0z" fill="#43525B" id="svg_16"/>
   <path d="m6.750342,37.522241l-2.7109,0c-0.5528,0 -1,-0.4478 -1,-1c0,-0.5523 0.4472,-1 1,-1l2.7109,0c0.5527,0 1,0.4477 1,1c0,0.5522 -0.4473,1 -1,1l0,0z" fill="#43525B" id="svg_18"/>
   <path d="m6.750342,33.003141l-2.7109,0c-0.5528,0 -1,-0.4477 -1,-1c0,-0.5522 0.4472,-1 1,-1l2.7109,0c0.5527,0 1,0.4478 1,1c0,0.5523 -0.4473,1 -1,1l0,0z" fill="#43525B" id="svg_20"/>
   <path d="m6.750342,28.484141l-2.7109,0c-0.5528,0 -1,-0.4478 -1,-1c0,-0.5523 0.4472,-1 1,-1l2.7109,0c0.5527,0 1,0.4477 1,1c0,0.5522 -0.4473,1 -1,1l0,0z" fill="#43525B" id="svg_22"/>
   <path d="m6.750342,23.964541l-2.7109,0c-0.5528,0 -1,-0.4477 -1,-1c0,-0.5522 0.4472,-1 1,-1l2.7109,0c0.5527,0 1,0.4478 1,1c0,0.5523 -0.4473,1 -1,1l0,0z" fill="#43525B" id="svg_24"/>
   <polygon fill="#43525B" points="31.250341415405273,49.17643928527832 29.25033950805664,49.17643928527832 29.25033950805664,23.86833953857422 31.250341415405273,23.86833953857422 31.250341415405273,49.17643928527832 " id="svg_26"/>
   <polygon fill="#0051BA" points="51.942745208740234,42.04074287414551 41.09604263305664,42.04074287414551 41.09604263305664,40.04074287414551 51.942745208740234,40.04074287414551 51.942745208740234,42.04074287414551 " id="svg_28"/>
   <rect fill="#ffc82d" height="7.2305" width="7.2305" x="44.712242" y="24.772641" id="svg_30"/>
   <path d="m52.942742,33.003141l-9.2305,0l0,-9.2305l9.2305,0l0,9.2305l0,0zm-7.2305,-2l5.2305,0l0,-5.2305l-5.2305,0l0,5.2305l0,0z" fill="#43525B" id="svg_31"/>
   <path d="m19.043342,29.775141c-0.4405,-1.001 -1.4375,-1.7031 -2.6026,-1.7031c-1.5634,0 -2.6924,1.2973 -2.8369,2.8374c0,0 -0.0742,0.3828 0.0928,1.0732c0.2314,0.939 0.7715,1.771 1.4951,2.4097l3.8516,3.3183l3.7861,-3.3183c0.7266,-0.6387 1.2647,-1.4707 1.4941,-2.4097c0.169,-0.6904 0.0948,-1.0732 0.0948,-1.0732c-0.1446,-1.5401 -1.2715,-2.8374 -2.8389,-2.8374c-1.1641,0 -2.0977,0.7021 -2.5361,1.7031z" fill="#e8000d" id="svg_34"/>
   <path d="m19.043342,38.710641c-0.2325,0 -0.4649,-0.0805 -0.6524,-0.2422l-3.8515,-3.3183c-0.9161,-0.8086 -1.5401,-1.8184 -1.8135,-2.9282c-0.2041,-0.8414 -0.1309,-1.3628 -0.1035,-1.503c0.1865,-2.0376 1.834,-3.6469 3.8183,-3.6469c0.9776,0 1.8955,0.372 2.5909,1.0083c0.6806,-0.6416 1.5761,-1.0083 2.5478,-1.0083c1.9854,0 3.6338,1.6093 3.835,3.7441c0.0127,0.043 0.0859,0.5659 -0.1192,1.4043c-0.2724,1.1133 -0.8965,2.124 -1.8056,2.9228l-3.7872,3.3194c-0.1884,0.1655 -0.4238,0.248 -0.6591,0.248l0,0zm-2.6026,-9.6386c-1.0898,0 -1.7509,0.9711 -1.8408,1.9306c-0.0088,0.0669 -0.0371,0.3081 0.0684,0.7451c0.1748,0.7085 0.5849,1.3653 1.1855,1.8951l3.1836,2.7431l3.1328,-2.7456c0.5987,-0.5264 1.0078,-1.1816 1.1817,-1.895c0.1064,-0.436 0.0791,-0.6763 0.0791,-0.6787c-0.0987,-1.0235 -0.7608,-1.9946 -1.8516,-1.9946c-0.7119,0 -1.3174,0.413 -1.6201,1.1044c-0.1592,0.3633 -0.5186,0.5982 -0.9151,0.5987l-0.0009,0c-0.3965,0 -0.7559,-0.2344 -0.9151,-0.5972c-0.2959,-0.6719 -0.958,-1.1059 -1.6875,-1.1059l0,0z" fill="#43525B" id="svg_35"/>
   <path d="m13.295242,47.614941c-0.2558,0 -0.5117,-0.0976 -0.707,-0.2929c-0.3906,-0.3907 -0.3906,-1.024 0,-1.4141l4.208,-4.207c0.3906,-0.3907 1.0234,-0.3907 1.4141,0c0.3906,0.3906 0.3906,1.0239 0,1.414l-4.208,4.2071c-0.1954,0.1953 -0.4512,0.2929 -0.7071,0.2929l0,0z" fill="#43525B" id="svg_39"/>
   <path d="m17.503242,47.614941c-0.2558,0 -0.5117,-0.0976 -0.707,-0.2929l-4.208,-4.2071c-0.3906,-0.3901 -0.3906,-1.0234 0,-1.414c0.3906,-0.3907 1.0234,-0.3907 1.4141,0l4.208,4.207c0.3906,0.3901 0.3906,1.0234 0,1.4141c-0.1954,0.1953 -0.4512,0.2929 -0.7071,0.2929l0,0z" fill="#43525B" id="svg_41"/>
   <path d="m20.307942,47.614941c-0.2558,0 -0.5117,-0.0976 -0.707,-0.2929c-0.3906,-0.3907 -0.3906,-1.024 0,-1.4141l4.208,-4.207c0.3906,-0.3907 1.0234,-0.3907 1.4141,0c0.3906,0.3906 0.3906,1.0239 0,1.414l-4.2081,4.2071c-0.1953,0.1953 -0.4511,0.2929 -0.707,0.2929l0,0z" fill="#43525B" id="svg_44"/>
   <path d="m24.515942,47.614941c-0.2558,0 -0.5117,-0.0976 -0.707,-0.2929l-4.208,-4.2071c-0.3906,-0.3901 -0.3906,-1.0234 0,-1.414c0.3906,-0.3907 1.0234,-0.3907 1.414,0l4.2081,4.207c0.3906,0.3901 0.3906,1.0234 0,1.4141c-0.1954,0.1953 -0.4512,0.2929 -0.7071,0.2929l0,0z" fill="#43525B" id="svg_46"/>
  </g>
 </g>
</svg>