<svg xmlns="http://www.w3.org/2000/svg" viewBox="0 0 64 64">
  <path fill="#ECE9E6" stroke="#0015ba" d="M49.83 12.867l-5.57-9.75-36.387 20.79"/>
  <path fill="#43525b" d="M8.37 24.775l-.993-1.737L44.632 1.753l6.066 10.618-1.736.992-5.075-8.882L8.37 24.775z"/>
  <path fill="#fff" d="M1.71 25.528L52.408 12.19l9.2 34.964-50.697 13.34z"/>
  <path d="M62.828 47.865l-52.63 13.848L.489 24.815l52.63-13.848 9.71 36.898zM11.623 59.27l48.762-12.83-8.69-33.03L2.932 26.24l8.691 33.03z" fill="#43525B"/>
  <path fill="#0051BA" d="M54.962 39.655l-12.238 3.22-.509-1.934 12.238-3.22.509 1.934z"/>
  <path d="M12.637 56.398l-2.622.69a1 1 0 11-.509-1.934l2.622-.69a1 1 0 11.509 1.934zM11.487 52.028l-2.622.69a1 1 0 11-.509-1.934l2.622-.69a1 1 0 11.509 1.934zM10.337 47.657l-2.622.69a1 1 0 11-.509-1.935l2.622-.69a1 1 0 11.509 1.935zM9.187 43.287l-2.622.69a1 1 0 11-.509-1.935l2.622-.69a1 1 0 11.509 1.935zM8.037 38.916l-2.622.69a1 1 0 11-.509-1.934l2.622-.69a1 1 0 11.509 1.934zM6.887 34.546l-2.622.69a1 1 0 11-.509-1.934l2.622-.69a1 1 0 11.509 1.934zM5.737 30.175l-2.622.69a1 1 0 11-.509-1.934l2.622-.69a1 1 0 11.509 1.934zM35.846 48.323l-1.934.51-6.44-24.476 1.934-.509 6.44 24.475z" fill="#43525B"/>
  <path fill="#0051BA" d="M54.041 36.157l-10.49 2.76-.508-1.934 10.49-2.76.508 1.934z"/>
  <path fill="#ffc82d" d="M42.655 21.298l6.993-1.84 1.84 6.993-6.993 1.84z"/>
  <path d="M52.709 27.163l-8.927 2.348-2.349-8.926 8.927-2.35 2.349 8.928zm-7.502-.095l5.059-1.33-1.331-5.059-5.059 1.33 1.331 5.06z" fill="#43525B"/>
  <path d="M19.104 32.667a2.843 2.843 0 00-2.95-.985c-1.512.398-2.274 1.94-2.022 3.466 0 0 .026.389.363 1.014.463.85 1.197 1.516 2.059 1.95l4.57 2.229 2.816-4.172c.54-.803.849-1.745.832-2.711-.012-.71-.181-1.062-.181-1.062-.532-1.453-1.952-2.42-3.468-2.022-1.126.297-1.85 1.213-2.02 2.293z" fill="#e8000d"/>
  <path d="M21.378 41.308a.996.996 0 01-.693-.068l-4.57-2.23c-1.09-.548-1.951-1.366-2.498-2.37-.411-.761-.473-1.284-.483-1.427-.338-2.018.846-3.993 2.765-4.498a3.836 3.836 0 012.762.316 3.688 3.688 0 012.208-1.624c1.92-.505 3.923.632 4.661 2.645.023.039.227.526.242 1.389.02 1.146-.326 2.282-1.002 3.286L21.952 40.9a.996.996 0 01-.574.407zm-4.97-8.659c-1.054.277-1.446 1.385-1.289 2.335.009.067.043.308.256.704.35.64.913 1.171 1.628 1.53l3.777 1.843 2.331-3.452c.445-.661.674-1.4.661-2.133-.008-.449-.096-.674-.096-.677-.356-.964-1.244-1.735-2.298-1.458-.689.182-1.17.735-1.286 1.48a1 1 0 01-1.77.467 1.847 1.847 0 00-1.914-.639zM18.084 51.382a1 1 0 01-1.118-1.47l3-5.14a1 1 0 111.727 1.007l-3 5.14a.997.997 0 01-.609.463z" fill="#43525B"/>
  <path d="M22.154 50.311a.997.997 0 01-.758-.103l-5.14-2.998a1 1 0 111.007-1.727l5.14 2.997a1 1 0 01-.25 1.831zM24.866 49.598a1 1 0 01-1.118-1.47l3-5.14a1 1 0 111.727 1.007l-3 5.14a.997.997 0 01-.609.463z" fill="#43525B"/>
  <path d="M28.936 48.527a.997.997 0 01-.759-.104l-5.14-2.997a1 1 0 111.008-1.728l5.14 2.998a1 1 0 01-.25 1.83z" fill="#43525B"/>
</svg>
